<svg width="151" height="60" viewBox="0 0 151 60" fill="none" xmlns="http://www.w3.org/2000/svg">
<path d="M53.6175 35.2625L45 30.955V30C44.9999 29.5686 44.8882 29.1446 44.6757 28.7692C44.4633 28.3937 44.1573 28.0797 43.7875 27.8575L32.5 21.085V15H37.5V10H32.5V5H27.5V10H22.5V15H27.5V21.085L16.2125 27.8575C15.8427 28.0797 15.5367 28.3937 15.3243 28.7692C15.1118 29.1446 15.0001 29.5686 15 30V30.955L6.3825 35.265C5.96693 35.472 5.61737 35.7909 5.37313 36.1857C5.1289 36.5806 4.99967 37.0357 5 37.5V52.5C5 53.163 5.26339 53.7989 5.73223 54.2678C6.20107 54.7366 6.83696 55 7.5 55H52.5C53.163 55 53.7989 54.7366 54.2678 54.2678C54.7366 53.7989 55 53.163 55 52.5V37.5C55 36.5525 54.465 35.6875 53.6175 35.2625ZM10 39.045L15 36.545V50H10V39.045ZM30 37.5C28.6739 37.5 27.4021 38.0268 26.4645 38.9645C25.5268 39.9021 25 41.1739 25 42.5V50H20V31.415L30 25.415L40 31.415V50H35V42.5C35 41.1739 34.4732 39.9021 33.5355 38.9645C32.5979 38.0268 31.3261 37.5 30 37.5ZM50 50H45V36.545L50 39.045V50Z" fill="#1BA09D"/>
<path d="M81.1585 47.472C81.6625 47.472 82.0825 47.64 82.4185 47.976C82.7785 48.312 82.9585 48.732 82.9585 49.236C82.9585 49.74 82.7785 50.16 82.4185 50.496C82.0825 50.832 81.6625 51 81.1585 51H69.0625C68.5345 51 68.0905 50.832 67.7305 50.496C67.3945 50.136 67.2265 49.692 67.2265 49.164V27.636C67.2265 27.108 67.4065 26.676 67.7665 26.34C68.1265 25.98 68.5945 25.8 69.1705 25.8C69.6505 25.8 70.0705 25.98 70.4305 26.34C70.8145 26.676 71.0065 27.108 71.0065 27.636V48.084L70.2505 47.472H81.1585ZM104.838 41.532C104.838 43.452 104.418 45.156 103.578 46.644C102.738 48.108 101.598 49.26 100.158 50.1C98.7178 50.94 97.0978 51.36 95.2978 51.36C93.4978 51.36 91.8778 50.94 90.4378 50.1C88.9978 49.26 87.8458 48.108 86.9818 46.644C86.1418 45.156 85.7218 43.452 85.7218 41.532C85.7218 39.588 86.1418 37.884 86.9818 36.42C87.8458 34.932 88.9978 33.768 90.4378 32.928C91.8778 32.064 93.4978 31.632 95.2978 31.632C97.0978 31.632 98.7178 32.064 100.158 32.928C101.598 33.768 102.738 34.932 103.578 36.42C104.418 37.884 104.838 39.588 104.838 41.532ZM101.238 41.532C101.238 40.212 100.974 39.072 100.446 38.112C99.9178 37.128 99.1978 36.36 98.2858 35.808C97.3978 35.232 96.4018 34.944 95.2978 34.944C94.1938 34.944 93.1858 35.232 92.2738 35.808C91.3618 36.36 90.6418 37.128 90.1138 38.112C89.5858 39.072 89.3218 40.212 89.3218 41.532C89.3218 42.804 89.5858 43.932 90.1138 44.916C90.6418 45.9 91.3618 46.668 92.2738 47.22C93.1858 47.772 94.1938 48.048 95.2978 48.048C96.4018 48.048 97.3978 47.772 98.2858 47.22C99.1978 46.668 99.9178 45.9 100.446 44.916C100.974 43.932 101.238 42.804 101.238 41.532ZM116.797 31.632C117.829 31.632 118.777 31.8 119.641 32.136C120.505 32.472 121.249 32.904 121.873 33.432C122.521 33.936 123.025 34.464 123.385 35.016C123.745 35.568 123.925 36.048 123.925 36.456L123.097 36.492V33.612C123.097 33.108 123.265 32.676 123.601 32.316C123.937 31.956 124.369 31.776 124.897 31.776C125.425 31.776 125.857 31.956 126.193 32.316C126.529 32.652 126.697 33.084 126.697 33.612V49.488C126.697 51.528 126.265 53.184 125.401 54.456C124.537 55.752 123.385 56.7 121.945 57.3C120.529 57.9 118.969 58.2 117.265 58.2C116.665 58.2 115.957 58.116 115.141 57.948C114.325 57.804 113.569 57.624 112.873 57.408C112.201 57.192 111.733 56.976 111.469 56.76C110.917 56.472 110.545 56.136 110.353 55.752C110.185 55.368 110.185 54.984 110.353 54.6C110.593 54.072 110.917 53.748 111.325 53.628C111.733 53.508 112.201 53.544 112.729 53.736C112.969 53.808 113.341 53.94 113.845 54.132C114.349 54.324 114.913 54.492 115.537 54.636C116.161 54.804 116.749 54.888 117.301 54.888C119.221 54.888 120.661 54.444 121.621 53.556C122.605 52.668 123.097 51.456 123.097 49.92V46.68L123.493 46.932C123.421 47.436 123.193 47.952 122.809 48.48C122.449 48.984 121.969 49.452 121.369 49.884C120.769 50.316 120.073 50.676 119.281 50.964C118.513 51.228 117.721 51.36 116.905 51.36C115.201 51.36 113.677 50.94 112.333 50.1C110.989 49.236 109.921 48.072 109.129 46.608C108.337 45.12 107.941 43.416 107.941 41.496C107.941 39.576 108.337 37.884 109.129 36.42C109.921 34.932 110.977 33.768 112.297 32.928C113.641 32.064 115.141 31.632 116.797 31.632ZM117.337 34.944C116.161 34.944 115.129 35.232 114.241 35.808C113.353 36.384 112.657 37.164 112.153 38.148C111.649 39.132 111.397 40.248 111.397 41.496C111.397 42.744 111.649 43.86 112.153 44.844C112.657 45.828 113.353 46.608 114.241 47.184C115.129 47.76 116.161 48.048 117.337 48.048C118.513 48.048 119.545 47.772 120.433 47.22C121.321 46.644 122.017 45.864 122.521 44.88C123.025 43.872 123.277 42.744 123.277 41.496C123.277 40.248 123.025 39.132 122.521 38.148C122.017 37.14 121.321 36.36 120.433 35.808C119.545 35.232 118.513 34.944 117.337 34.944ZM149.135 41.532C149.135 43.452 148.715 45.156 147.875 46.644C147.035 48.108 145.895 49.26 144.455 50.1C143.015 50.94 141.395 51.36 139.595 51.36C137.795 51.36 136.175 50.94 134.735 50.1C133.295 49.26 132.143 48.108 131.279 46.644C130.439 45.156 130.019 43.452 130.019 41.532C130.019 39.588 130.439 37.884 131.279 36.42C132.143 34.932 133.295 33.768 134.735 32.928C136.175 32.064 137.795 31.632 139.595 31.632C141.395 31.632 143.015 32.064 144.455 32.928C145.895 33.768 147.035 34.932 147.875 36.42C148.715 37.884 149.135 39.588 149.135 41.532ZM145.535 41.532C145.535 40.212 145.271 39.072 144.743 38.112C144.215 37.128 143.495 36.36 142.583 35.808C141.695 35.232 140.699 34.944 139.595 34.944C138.491 34.944 137.483 35.232 136.571 35.808C135.659 36.36 134.939 37.128 134.411 38.112C133.883 39.072 133.619 40.212 133.619 41.532C133.619 42.804 133.883 43.932 134.411 44.916C134.939 45.9 135.659 46.668 136.571 47.22C137.483 47.772 138.491 48.048 139.595 48.048C140.699 48.048 141.695 47.772 142.583 47.22C143.495 46.668 144.215 45.9 144.743 44.916C145.271 43.932 145.535 42.804 145.535 41.532Z" fill="#1BA09D"/>
</svg>
