<svg width="15" height="15" viewBox="0 0 15 15" fill="none" xmlns="http://www.w3.org/2000/svg">
<path fill-rule="evenodd" clip-rule="evenodd" d="M7.5125 8.92758L13.274 14.689C13.466 14.8746 13.7233 14.9772 13.9904 14.9749C14.2574 14.9726 14.5128 14.8655 14.7017 14.6766C14.8905 14.4878 14.9976 14.2324 14.9999 13.9653C15.0023 13.6983 14.8996 13.441 14.7141 13.2489L8.95261 7.48747L14.7141 1.72601C14.8996 1.53392 15.0023 1.27666 14.9999 1.00962C14.9976 0.742578 14.8905 0.487134 14.7017 0.298302C14.5128 0.10947 14.2574 0.00235899 13.9904 3.85007e-05C13.7233 -0.00228199 13.466 0.100374 13.274 0.285895L7.5125 6.04736L1.75104 0.285895C1.55809 0.10496 1.30231 0.00618953 1.03784 0.0104842C0.773358 0.0147788 0.520925 0.121802 0.333953 0.308907C0.14698 0.496012 0.0401355 0.748519 0.036028 1.013C0.0319204 1.27748 0.130872 1.53319 0.311944 1.72601L6.07239 7.48747L0.310925 13.2489C0.213652 13.3429 0.136063 13.4553 0.0826861 13.5795C0.0293093 13.7038 0.00121358 13.8374 3.84543e-05 13.9727C-0.00113667 14.1079 0.0246321 14.242 0.0758414 14.3672C0.127051 14.4923 0.202675 14.606 0.298302 14.7017C0.393928 14.7973 0.507642 14.8729 0.632808 14.9241C0.757974 14.9753 0.892085 15.0011 1.02732 14.9999C1.16255 14.9988 1.29619 14.9707 1.42045 14.9173C1.5447 14.8639 1.65709 14.7863 1.75104 14.689L7.5125 8.92758Z" fill="#1BA09D"/>
</svg>
