<svg width="60" height="60" viewBox="0 0 60 60" fill="none" xmlns="http://www.w3.org/2000/svg">
<path d="M60 30C60 38.0518 56.8277 45.3628 51.665 50.7512C46.2045 56.4512 38.5166 60 30 60C21.4834 60 13.7955 56.4512 8.33499 50.7512C3.17224 45.3628 0 38.0518 0 30C0 13.4316 13.4316 0 30 0C46.5683 0 60 13.4316 60 30Z" fill="#F4F4F4"/>
<path d="M30.0019 31.6102C36.7706 31.6102 42.2577 26.1231 42.2577 19.3544C42.2577 12.5857 36.7706 7.09863 30.0019 7.09863C23.2332 7.09863 17.7461 12.5857 17.7461 19.3544C17.7461 26.1231 23.2332 31.6102 30.0019 31.6102Z" fill="#1BA09D"/>
<path d="M50.6509 48.2707C50.4107 48.5423 50.1646 48.8096 49.9134 49.071C44.8953 54.3098 37.8294 57.5711 30.0022 57.5711C22.175 57.5711 15.1091 54.3098 10.091 49.071C9.83982 48.8096 9.59373 48.5423 9.35352 48.2707C9.35352 41.7182 12.2873 34.7725 20.8596 33.2085C23.6152 35.2609 26.1825 36.1234 30.0022 36.1234C33.8276 36.1234 36.7352 35.2462 39.1109 33.2458C48.0107 34.9448 50.6509 42.2376 50.6509 48.2707Z" fill="#1BA09D"/>
</svg>
