<svg width="24" height="24" viewBox="0 0 24 24" fill="none" xmlns="http://www.w3.org/2000/svg">
<path d="M6.53009 2.46959C6.67069 2.61024 6.74968 2.80097 6.74968 2.99984C6.74968 3.19871 6.67069 3.38944 6.53009 3.53009L4.06034 5.99984H13.1248C17.4741 5.99984 20.9998 9.52559 20.9998 13.8748C20.9998 18.2241 17.4741 21.7498 13.1248 21.7498C8.77559 21.7498 5.24984 18.2241 5.24984 13.8748C5.24984 13.6759 5.32886 13.4852 5.46951 13.3445C5.61016 13.2039 5.80093 13.1248 5.99984 13.1248C6.19875 13.1248 6.38952 13.2039 6.53017 13.3445C6.67082 13.4852 6.74984 13.6759 6.74984 13.8748C6.74984 15.1357 7.12373 16.3682 7.82422 17.4166C8.52471 18.465 9.52035 19.2821 10.6852 19.7646C11.8501 20.2471 13.1319 20.3733 14.3685 20.1273C15.6052 19.8814 16.7411 19.2742 17.6326 18.3826C18.5242 17.4911 19.1314 16.3552 19.3773 15.1185C19.6233 13.8819 19.4971 12.6001 19.0146 11.4352C18.5321 10.2704 17.715 9.27471 16.6666 8.57422C15.6182 7.87373 14.3857 7.49984 13.1248 7.49984H4.06034L6.53009 9.96959C6.60172 10.0388 6.65886 10.1215 6.69817 10.213C6.73747 10.3045 6.75816 10.403 6.75903 10.5025C6.75989 10.6021 6.74092 10.7009 6.70321 10.7931C6.6655 10.8852 6.60981 10.969 6.53939 11.0394C6.46897 11.1098 6.38523 11.1655 6.29306 11.2032C6.20088 11.2409 6.10212 11.2599 6.00254 11.259C5.90295 11.2582 5.80454 11.2375 5.71304 11.1982C5.62153 11.1589 5.53877 11.1017 5.46959 11.0301L1.71959 7.28009C1.57899 7.13944 1.5 6.94871 1.5 6.74984C1.5 6.55097 1.57899 6.36024 1.71959 6.21959L5.46959 2.46959C5.61024 2.32899 5.80097 2.25 5.99984 2.25C6.19871 2.25 6.38944 2.32899 6.53009 2.46959Z" fill="#1BA09D"/>
</svg>
