<svg width="61" height="61" viewBox="0 0 61 61" fill="none" xmlns="http://www.w3.org/2000/svg">
<path d="M51 1V10M51 10V19M51 10H60M51 10H42" stroke="#C9C9C9" stroke-width="2" stroke-linecap="round" stroke-linejoin="round"/>
<path fill-rule="evenodd" clip-rule="evenodd" d="M33 1H9C6.61305 1 4.32387 1.94821 2.63604 3.63604C0.948212 5.32387 0 7.61305 0 10V41.5C0 41.758 0.0330002 42.01 0.0960002 42.25C0.0324972 42.4949 0.000240887 42.747 0 43V52C0 54.3869 0.948212 56.6761 2.63604 58.364C4.32387 60.0518 6.61305 61 9 61H51C53.3869 61 55.6761 60.0518 57.364 58.364C59.0518 56.6761 60 54.3869 60 52V31C59.9998 30.747 59.9675 30.495 59.904 30.25C59.9675 30.005 59.9998 29.753 60 29.5V28H54V28.048C41.109 28.465 31.8 31.57 25.26 35.917C27.738 36.796 30.51 38.047 33.228 39.685C37.425 42.205 41.691 45.745 44.562 50.434C44.7677 50.7701 44.9051 51.1433 44.9665 51.5325C45.0279 51.9217 45.012 52.3191 44.9198 52.7022C44.8276 53.0852 44.6609 53.4463 44.4291 53.7649C44.1973 54.0835 43.9051 54.3534 43.569 54.559C43.2329 54.7647 42.8597 54.9021 42.4705 54.9635C42.0813 55.0249 41.6839 55.009 41.3008 54.9168C40.9178 54.8246 40.5567 54.6579 40.2381 54.4261C39.9195 54.1943 39.6497 53.9021 39.444 53.566C37.236 49.957 33.81 47.032 30.138 44.827C26.472 42.625 22.743 41.251 20.157 40.651C16.5141 39.8191 12.7841 39.4303 9.048 39.493H8.982C7.938 39.508 6.942 39.553 6 39.628V10C6 9.20435 6.31607 8.44129 6.87868 7.87868C7.44129 7.31607 8.20435 7 9 7H33V1ZM19.5 13C17.8645 13.0122 16.2717 13.5229 14.934 14.464C13.224 15.694 12 17.722 12 20.5C12 23.278 13.224 25.303 14.934 26.533C16.2708 27.4762 17.864 27.988 19.5 28C20.73 28 22.509 27.655 24.066 26.533C25.776 25.303 27 23.278 27 20.5C27 17.722 25.776 15.697 24.066 14.464C22.7289 13.5219 21.1357 13.0111 19.5 13Z" fill="#C9C9C9"/>
</svg>
